<?xml version="1.0" standalone="no"?>
<!DOCTYPE svg PUBLIC "-//W3C//DTD SVG 20010904//EN"
 "http://www.w3.org/TR/2001/REC-SVG-20010904/DTD/svg10.dtd">
<svg version="1.0" xmlns="http://www.w3.org/2000/svg"
 width="415.000000pt" height="97.000000pt" viewBox="0 0 415.000000 97.000000"
 preserveAspectRatio="xMidYMid meet">

<g transform="translate(0.000000,97.000000) scale(0.100000,-0.100000)"
fill="#000000" stroke="none">
<path d="M857 951 c-76 -26 -87 -41 -87 -113 1 -94 29 -196 86 -319 l37 -78
-26 -43 c-53 -90 -156 -158 -240 -158 -37 0 -43 -4 -80 -48 -56 -69 -28 -100
81 -89 97 10 186 62 290 172 50 52 96 106 104 119 7 14 54 92 105 174 114 183
186 318 178 332 -20 32 -135 -19 -198 -90 -25 -28 -60 -86 -83 -136 -38 -87
-39 -87 -46 -53 -4 19 -15 93 -23 164 -24 199 -21 194 -98 166z"/>
<path d="M1472 940 c-98 -14 -158 -60 -145 -111 4 -15 14 -19 49 -19 24 0 44
-2 44 -5 0 -2 -20 -57 -44 -122 -106 -287 -161 -483 -150 -528 17 -70 170 -21
221 70 20 36 107 313 163 520 12 44 25 83 28 87 4 4 22 0 41 -9 115 -56 56
-281 -89 -339 -34 -14 -40 -21 -40 -46 0 -38 69 -186 111 -239 43 -54 110 -92
166 -93 41 -1 49 3 83 41 32 36 71 127 59 137 -2 2 -37 20 -76 41 -40 20 -89
56 -109 78 l-37 40 49 22 c87 39 148 118 160 208 15 108 -69 210 -207 251 -67
20 -195 27 -277 16z"/>
<path d="M312 920 c-37 -17 -47 -28 -71 -82 -61 -136 -180 -553 -184 -647 -3
-81 7 -86 171 -86 95 0 147 4 170 14 40 17 102 94 102 127 0 29 -11 30 -129 9
-46 -8 -86 -13 -89 -11 -7 8 26 100 105 296 128 315 142 369 104 390 -32 17
-132 12 -179 -10z"/>
<path d="M2273 905 c-56 -25 -80 -73 -113 -230 -30 -145 -87 -329 -128 -415
-50 -105 -44 -170 15 -170 41 0 88 26 126 70 70 82 224 422 267 592 28 109 27
126 -12 142 -53 22 -119 26 -155 11z"/>
<path d="M2705 895 c-5 -2 -35 -11 -65 -19 -85 -24 -90 -30 -56 -65 l29 -30
-51 -118 c-28 -65 -72 -172 -97 -238 -26 -66 -70 -168 -100 -226 -35 -70 -50
-110 -45 -119 13 -21 77 -13 132 17 77 42 105 96 192 368 l42 129 38 -109 c46
-136 136 -320 183 -374 58 -68 96 -53 151 56 35 69 191 477 222 580 12 39 20
86 18 105 -2 28 -7 34 -31 36 -45 5 -114 -34 -142 -82 -13 -23 -46 -117 -72
-209 l-47 -167 -17 27 c-10 16 -45 109 -78 208 -68 202 -84 225 -152 231 -24
2 -48 2 -54 -1z"/>
<path d="M3402 880 c-52 -12 -60 -26 -29 -50 15 -12 71 -107 133 -227 l107
-207 -39 -33 c-21 -19 -94 -70 -161 -115 -103 -68 -124 -86 -137 -119 -28 -71
-15 -119 33 -119 30 0 140 71 226 145 28 24 71 62 96 84 l47 41 26 -40 c34
-52 89 -88 157 -101 48 -10 61 -9 111 10 31 12 67 31 80 42 l23 20 -30 22
c-65 49 -132 118 -164 171 l-33 56 48 56 c208 238 255 304 233 330 -25 31
-128 -7 -185 -68 -17 -18 -56 -67 -87 -109 -31 -43 -60 -80 -65 -83 -5 -3 -30
36 -55 87 -49 98 -111 178 -158 202 -30 16 -121 18 -177 5z"/>
</g>
</svg>
